<svg id="vector" xmlns="http://www.w3.org/2000/svg" width="54" height="54" viewBox="0 0 54.0 54.0"><path fill="#8880" d="M0,0h108v108h-108z" id="path_0"/><path fill="#bf7029" d="M20,20 L10,20 L10,44 L10,44 L42,44 L42,44 L42,20 L42,20 L32,20 C27,32 21,23 20,20 L20,20 L10,20 Z" stroke="#000" stroke-width="0.3" stroke-linejoin="round" id="path_1"/><path fill="#bf7029" d="M42,20 L48,12 L48,35 L42,44 L42,20 Z" stroke="#000" stroke-width="0.3" stroke-linejoin="round" id="path_2"/><path fill="#bf7029" d="M46,12 L48,12 L46,14.35 Z" stroke="#000" stroke-width="0.3" stroke-linejoin="round" id="path_3"/><path fill="#8ddcf7" d="M12,20 L12,17 L35,17 L35,15 L42,15 L42,20 L32,20 C27,32 21,23 20,20 Z" stroke="#000" stroke-width="0.3" stroke-linejoin="round" id="path_4"/><path fill="#deae66" d="M14,17 L14,14 L37,14 L37,12 L44,12 L44,17 L42,20 L42,15 L35,15 L35,17 Z" stroke="#000" stroke-width="0.3" stroke-linejoin="round" id="path_5"/><path fill="#8ec430" d="M16,14 L16,11 L39,11 L39,9 L46,9 L46,14.35 L44,17 L44,12 L37,12 L37,14 Z" stroke="#000" stroke-width="0.3" stroke-linejoin="round" id="path_6"/></svg>